<?xml version="1.0" standalone="no"?>
<!DOCTYPE svg PUBLIC "-//W3C//DTD SVG 20010904//EN"
 "http://www.w3.org/TR/2001/REC-SVG-20010904/DTD/svg10.dtd">
<svg version="1.0" xmlns="http://www.w3.org/2000/svg"
 width="512.000000pt" height="512.000000pt" viewBox="0 0 512.000000 512.000000"
 preserveAspectRatio="xMidYMid meet">
<metadata>
Created by potrace 1.16, written by Peter Selinger 2001-2019
</metadata>
<g transform="translate(0.000000,512.000000) scale(0.100000,-0.100000)"
fill="white" stroke="none">
<path d="M2490 5072 c-117 -49 -2177 -1016 -2192 -1029 -23 -20 -23 -45 0 -70
21 -25 2227 -953 2263 -953 19 0 2104 869 2239 933 13 7 29 25 34 40 8 22 6
31 -9 47 -31 29 -2208 1041 -2252 1046 -23 2 -56 -3 -83 -14z"/>
<path d="M22 3720 l-22 -9 0 -1342 c0 -1328 0 -1342 20 -1374 11 -18 30 -39
43 -47 12 -8 532 -218 1155 -468 999 -399 1136 -451 1158 -441 l24 11 -2 1347
-3 1348 -1155 486 c-635 267 -1164 489 -1175 492 -11 3 -30 2 -43 -3z"/>
<path d="M4875 3650 c-104 -44 -631 -266 -1170 -493 l-980 -412 -3 -1348 -2
-1347 24 -11 c22 -10 159 42 1158 441 623 250 1143 460 1155 468 13 8 32 29
43 47 20 32 20 46 20 1366 0 734 -4 1339 -8 1345 -19 29 -52 21 -237 -56z"/>
</g>
</svg>
